<svg xmlns="http://www.w3.org/2000/svg" xmlns:xlink="http://www.w3.org/1999/xlink" viewBox="0 0 425.2 425.2"><defs><style>.cls-1{mask:url(#mask);filter:url(#luminosity-noclip-9);}.cls-10,.cls-12,.cls-14,.cls-16,.cls-2,.cls-4,.cls-6,.cls-8{mix-blend-mode:multiply;}.cls-2{fill:url(#radial-gradient);}.cls-3{mask:url(#mask-2);filter:url(#luminosity-noclip-14);}.cls-4{fill:url(#radial-gradient-2);}.cls-5{mask:url(#mask-3);filter:url(#luminosity-noclip-15);}.cls-6{fill:url(#radial-gradient-3);}.cls-7{mask:url(#mask-4);filter:url(#luminosity-noclip-16);}.cls-8{fill:url(#radial-gradient-4);}.cls-9{mask:url(#mask-5);filter:url(#luminosity-noclip-10);}.cls-10{fill:url(#radial-gradient-5);}.cls-11{mask:url(#mask-6);filter:url(#luminosity-noclip-11);}.cls-12{fill:url(#radial-gradient-6);}.cls-13{mask:url(#mask-7);filter:url(#luminosity-noclip-12);}.cls-14{fill:url(#radial-gradient-7);}.cls-15{mask:url(#mask-8);filter:url(#luminosity-noclip-13);}.cls-16{fill:url(#radial-gradient-8);}.cls-17{fill:#fff;}.cls-18{fill:#0e7489;}.cls-19{fill:#091410;}.cls-20{mask:url(#mask-9);}.cls-21{fill:#015b83;}.cls-22{mask:url(#mask-10);}.cls-23{fill:#15233e;}.cls-24{mask:url(#mask-11);}.cls-25{fill:#045a83;}.cls-26{mask:url(#mask-12);}.cls-27{mask:url(#mask-13);}.cls-28{fill:url(#radial-gradient-9);}.cls-29{mask:url(#mask-14);}.cls-30{fill:url(#radial-gradient-10);}.cls-31{mask:url(#mask-15);}.cls-32{mask:url(#mask-16);}.cls-33{fill:url(#radial-gradient-11);}.cls-34{filter:url(#luminosity-noclip-8);}.cls-35{filter:url(#luminosity-noclip-7);}.cls-36{filter:url(#luminosity-noclip-6);}.cls-37{filter:url(#luminosity-noclip-5);}.cls-38{filter:url(#luminosity-noclip-4);}.cls-39{filter:url(#luminosity-noclip-3);}.cls-40{filter:url(#luminosity-noclip-2);}.cls-41{filter:url(#luminosity-noclip);}</style><filter id="luminosity-noclip" x="252.59" y="-8403.08" width="76.09" height="32766" filterUnits="userSpaceOnUse" color-interpolation-filters="sRGB"><feFlood flood-color="#fff" result="bg"/><feBlend in="SourceGraphic" in2="bg"/></filter><mask id="mask" x="252.59" y="-8403.08" width="76.09" height="32766" maskUnits="userSpaceOnUse"><g class="cls-41"/></mask><radialGradient id="radial-gradient" cx="80.09" cy="575.85" r="43.16" gradientTransform="translate(220.46 -400.47) scale(0.88)" gradientUnits="userSpaceOnUse"><stop offset="0" stop-color="#ccc"/><stop offset="1" stop-color="#fff"/></radialGradient><filter id="luminosity-noclip-2" x="123.76" y="-8403.08" width="88.84" height="32766" filterUnits="userSpaceOnUse" color-interpolation-filters="sRGB"><feFlood flood-color="#fff" result="bg"/><feBlend in="SourceGraphic" in2="bg"/></filter><mask id="mask-2" x="123.76" y="-8403.08" width="88.84" height="32766" maskUnits="userSpaceOnUse"><g class="cls-40"/></mask><radialGradient id="radial-gradient-2" cx="-56.49" cy="733.63" r="53.22" xlink:href="#radial-gradient"/><filter id="luminosity-noclip-3" x="146.33" y="-8403.08" width="151.9" height="32766" filterUnits="userSpaceOnUse" color-interpolation-filters="sRGB"><feFlood flood-color="#fff" result="bg"/><feBlend in="SourceGraphic" in2="bg"/></filter><mask id="mask-3" x="146.33" y="-8403.08" width="151.9" height="32766" maskUnits="userSpaceOnUse"><g class="cls-39"/></mask><radialGradient id="radial-gradient-3" cx="2.08" cy="681.08" r="87.34" xlink:href="#radial-gradient"/><filter id="luminosity-noclip-4" x="79.4" y="-8403.08" width="54.25" height="32766" filterUnits="userSpaceOnUse" color-interpolation-filters="sRGB"><feFlood flood-color="#fff" result="bg"/><feBlend in="SourceGraphic" in2="bg"/></filter><mask id="mask-4" x="79.4" y="-8403.08" width="54.25" height="32766" maskUnits="userSpaceOnUse"><g class="cls-38"/></mask><radialGradient id="radial-gradient-4" cx="-130.05" cy="777.51" r="30.94" xlink:href="#radial-gradient"/><filter id="luminosity-noclip-5" x="133.65" y="-8403.08" width="103.92" height="32766" filterUnits="userSpaceOnUse" color-interpolation-filters="sRGB"><feFlood flood-color="#fff" result="bg"/><feBlend in="SourceGraphic" in2="bg"/></filter><mask id="mask-5" x="133.65" y="-8403.08" width="103.92" height="32766" maskUnits="userSpaceOnUse"><g class="cls-37"/></mask><radialGradient id="radial-gradient-5" cx="-39.78" cy="575.85" r="59.3" xlink:href="#radial-gradient"/><filter id="luminosity-noclip-6" x="88.48" y="-8403.08" width="55.33" height="32766" filterUnits="userSpaceOnUse" color-interpolation-filters="sRGB"><feFlood flood-color="#fff" result="bg"/><feBlend in="SourceGraphic" in2="bg"/></filter><mask id="mask-6" x="88.48" y="-8403.08" width="55.33" height="32766" maskUnits="userSpaceOnUse"><g class="cls-36"/></mask><radialGradient id="radial-gradient-6" cx="-119.07" cy="670.54" r="31.57" xlink:href="#radial-gradient"/><filter id="luminosity-noclip-7" x="298.23" y="-8403.08" width="40.51" height="32766" filterUnits="userSpaceOnUse" color-interpolation-filters="sRGB"><feFlood flood-color="#fff" result="bg"/><feBlend in="SourceGraphic" in2="bg"/></filter><mask id="mask-7" x="298.23" y="-8403.08" width="40.51" height="32766" maskUnits="userSpaceOnUse"><g class="cls-35"/></mask><radialGradient id="radial-gradient-7" cx="111.89" cy="690.67" r="23.29" xlink:href="#radial-gradient"/><filter id="luminosity-noclip-8" x="272.97" y="-8403.08" width="71.99" height="32766" filterUnits="userSpaceOnUse" color-interpolation-filters="sRGB"><feFlood flood-color="#fff" result="bg"/><feBlend in="SourceGraphic" in2="bg"/></filter><mask id="mask-8" x="272.97" y="-8403.08" width="71.99" height="32766" maskUnits="userSpaceOnUse"><g class="cls-34"/></mask><radialGradient id="radial-gradient-8" cx="101.02" cy="758.19" r="41.32" xlink:href="#radial-gradient"/><filter id="luminosity-noclip-9" x="252.59" y="66.46" width="76.09" height="75.15" filterUnits="userSpaceOnUse" color-interpolation-filters="sRGB"><feFlood flood-color="#fff" result="bg"/><feBlend in="SourceGraphic" in2="bg"/></filter><mask id="mask-9" x="252.59" y="66.46" width="76.09" height="75.15" maskUnits="userSpaceOnUse"><g class="cls-1"><path class="cls-2" d="M328.68,104.62v-2.46l-5.83-.7a30.2,30.2,0,0,0-.28-3l5.77-2-.51-2.4-6.07.56a30.57,30.57,0,0,0-1.12-3.22L325.82,88l-1.1-2.2-5.79,2.07a31.45,31.45,0,0,0-2.71-4.05l4-4.68-1.69-1.8-4.87,3.57A30.51,30.51,0,0,0,310.24,78L313,72.54l-2.07-1.34L307,75.88A32.69,32.69,0,0,0,303.1,74L304.26,68l-2.36-.74-2.51,5.55a31.64,31.64,0,0,0-6.28-.68l-.71-5.63h-2.47l-.71,5.63a32.34,32.34,0,0,0-6,.76l-2.5-5.54-2.37.7,1.14,5.92a31.34,31.34,0,0,0-4,1.87l-3.87-4.59-2.09,1.34,2.68,5.35a31.47,31.47,0,0,0-3.48,3L264,77.36l-1.71,1.8,3.91,4.57a31.25,31.25,0,0,0-2.78,4.12l-5.71-2L256.61,88l5.12,3.31a31.51,31.51,0,0,0-1.15,3.29l-6-.55-.52,2.4,5.7,1.91c-.16,1-.62,2-.69,3l-6.46.72v2.46l6.45.72c.06,1,.34,2,.48,2.93l-5.57,1.9.57,2.4,6-.55a31.43,31.43,0,0,0,1.15,3.33l-5,3.26,1.11,2.21,5.61-2a31.69,31.69,0,0,0,2.79,4.18l-3.82,4.46,1.71,1.8,4.66-3.38a32.61,32.61,0,0,0,3.52,3l-2.6,5.17,2.09,1.34,3.74-4.42a32.3,32.3,0,0,0,4.06,1.94l-1.1,5.72,2.37.74,2.41-5.26a31.77,31.77,0,0,0,5.88,1.28l.7,6.25h2.47l.7-6.22a32.49,32.49,0,0,0,6.56-1.21l2.42,5.25,2.36-.78-1.11-5.85a33,33,0,0,0,4-1.94l3.79,4.52L313,134l-2.63-5.31a31.5,31.5,0,0,0,3.43-3l4.74,3.47,1.69-1.8-3.88-4.56a31.8,31.8,0,0,0,2.74-4.12l5.68,2,1.1-2.21-5.11-3.32a33.75,33.75,0,0,0,1.11-3.26l6,.55.51-2.4-5.72-1.94c.14-.94.15-1.9.2-2.86Zm-37.44,24.86A26.47,26.47,0,1,1,317.82,103,26.55,26.55,0,0,1,291.24,129.48Z"/></g></mask><filter id="luminosity-noclip-10" x="133.65" y="52.09" width="103.92" height="103.89" filterUnits="userSpaceOnUse" color-interpolation-filters="sRGB"><feFlood flood-color="#fff" result="bg"/><feBlend in="SourceGraphic" in2="bg"/></filter><mask id="mask-10" x="133.65" y="52.09" width="103.92" height="103.89" maskUnits="userSpaceOnUse"><g class="cls-9"><path class="cls-10" d="M237.54,102.43l-.42-5.23v-.1a1.62,1.62,0,0,0-1.69-1.45h-.21l-3.56.29h-.1c-1.2,0-1.48-1.62-1.48-1.64a47.14,47.14,0,0,0-1.34-4.71,4.84,4.84,0,0,1-.27-1.43c0-1.14.72-1.38.72-1.38l3.28-1.68a1.39,1.39,0,0,0,.86-1.29,2.14,2.14,0,0,0-.27-1l-2.5-4.89h0l0-.06h0v0a1.41,1.41,0,0,0-1.28-.79h0a2.15,2.15,0,0,0-1,.27l-3.1,1.58a1,1,0,0,1-.45.09,2.33,2.33,0,0,1-1.64-.82h0c-.19-.38-2.34-3.1-3.53-4.54a2.15,2.15,0,0,1-.62-1.35.83.83,0,0,1,.3-.67s1.3-1.53,2.39-2.83a1.74,1.74,0,0,0,.48-1.14,1.71,1.71,0,0,0-.53-1.17l-4.35-3.71,0,0h0a1.5,1.5,0,0,0-1-.38h0a1.8,1.8,0,0,0-1.2.52h0l-.1.12-2.48,2.89a1,1,0,0,1-.77.33,3.2,3.2,0,0,1-1.34-.4c-.89-.77-4-2.18-5.38-3.07-.65-.44-.83-.85-.83-1.17a1,1,0,0,1,.2-.57l.08-.27c.18-.51.56-1.69,1-3a2.6,2.6,0,0,0,.11-.68,1.64,1.64,0,0,0-1.22-1.51l-.18-.05-5-1.64h0a2,2,0,0,0-.58-.1h0a1.63,1.63,0,0,0-1.46,1.13s-1,3-1.22,3.77v0c-.19.51-1,.61-1.59.62h-.44a50.68,50.68,0,0,0-5.33-.64c-1.91-.15-1.94-1.31-1.94-1.31s-.11-1.47-.29-3.49c-.14-1.51-1.14-1.72-1.64-1.73h0l-.24,0-5.38.42a1.71,1.71,0,0,0-1.55,1.79h0v.06c0,.39.2,2.63.28,3.61v.13c0,.87-.73,1.24-1.44,1.42l-.23,0a46.84,46.84,0,0,0-5.27,1.5h0a2.72,2.72,0,0,1-.85.16h0a1.56,1.56,0,0,1-1.5-1.17s-.42-.84-1.32-2.57v0h0l0,0h0a1.76,1.76,0,0,0-1.55-1.06h0a1.72,1.72,0,0,0-.71.15l-5.09,2.61a1.38,1.38,0,0,0-.82,1.28,2.34,2.34,0,0,0,.22.95s1.24,2.4,1.63,3.18h0a1.41,1.41,0,0,1,.12.55,2,2,0,0,1-1,1.56c-.68.45-2.63,2-4.31,3.38l0,0v0h0a2.2,2.2,0,0,1-1.38.58h0a1.59,1.59,0,0,1-1.2-.59l-2.4-2a1.59,1.59,0,0,0-1-.41,1.88,1.88,0,0,0-1.11.4s-2.24,2.61-3.45,4l-.23.26-.07.07a1.69,1.69,0,0,0-.44,1.11,1.91,1.91,0,0,0,.6,1.28s2,1.7,2.82,2.4a1.11,1.11,0,0,1,.35.88,3.32,3.32,0,0,1-.37,1.35,40.7,40.7,0,0,0-2.76,4.9c-.47,1-1.07,1.19-1.54,1.19a1.51,1.51,0,0,1-.76-.21l-3-1a1.92,1.92,0,0,0-.64-.11,1.72,1.72,0,0,0-1.51,1l-1.67,5.14a1.74,1.74,0,0,0,.88,2.36l3.67,1.2c1,.31.78,2,.78,2-.19.86-.47,3.43-.65,5.43s-1.47,1.92-1.66,1.92h0l-3.12.25a1.7,1.7,0,0,0-1.7,2.12s.23,2.72.39,4.89c.14,1.67,1.16,1.86,1.64,1.86l.25,0,3.08-.24h.23a1.72,1.72,0,0,1,1.86,1.5c.22,1.28,1.28,4.19,1.59,5.74s-.54,1.8-.54,1.8l-3.13,1.58a1.74,1.74,0,0,0-.81,2.58l2.43,4.76A1.42,1.42,0,0,0,142,131a2.77,2.77,0,0,0,1.28-.38l2.93-1.5a1.18,1.18,0,0,1,.53-.13,2.25,2.25,0,0,1,1.68,1.25c.45.77,2.43,3.16,3.43,4.39s.1,2,.1,2l-2.19,2.56a1.79,1.79,0,0,0,0,2.46s2.71,2.45,4.2,3.57a1.89,1.89,0,0,0,1.15.44,1.86,1.86,0,0,0,1.37-.71l2.35-2.74a1.14,1.14,0,0,1,.89-.32,2.39,2.39,0,0,1,1.29.4c.75.51,3.24,1.91,4.83,2.71s1.14,2,1.14,2-.24.75-1,2.92.87,2.55.87,2.55l5,1.63a2.86,2.86,0,0,0,.84.15,1.61,1.61,0,0,0,1.56-1.16s.77-2.4,1.15-3.55c.2-.65.84-.81,1.48-.81a7.85,7.85,0,0,1,1.35.16c.68.11,2.69.36,4.72.51s1.84,1.64,1.84,1.64.15,1.78.27,3.41a1.7,1.7,0,0,0,1.9,1.46h.18l4.9-.39c2.15-.16,1.85-2,1.85-2s-.15-2-.26-3.31,1.4-1.79,1.93-1.87A49.49,49.49,0,0,0,200.5,147a3.48,3.48,0,0,1,1-.19,1.37,1.37,0,0,1,1.44,1l1.57,3.09a1.42,1.42,0,0,0,1.33.77,2.53,2.53,0,0,0,.79-.13l5.05-2.57a1.65,1.65,0,0,0,.54-2.45s-1-2-1.48-2.91.19-1.8,1.06-2.4,3.17-2.45,4.47-3.48h0a1.74,1.74,0,0,1,1.08-.46h0l.37.07a1.08,1.08,0,0,1,.47.37s1,.84,2.5,2.13a2,2,0,0,0,1.29.56h0a1.8,1.8,0,0,0,1.3-.65h0s2.43-2.84,3.57-4.18a1.6,1.6,0,0,0,.45-1,1.85,1.85,0,0,0-.76-1.34s-1.95-1.65-2.79-2.38a1,1,0,0,1-.35-.81,3.09,3.09,0,0,1,.48-1.43c.41-.57,2-3.5,2.93-5.16h0v0l0,0a1.45,1.45,0,0,1,1.21-.85h0a1.48,1.48,0,0,1,.84.3l2.85.93h0a2.54,2.54,0,0,0,.75.13h0a1.62,1.62,0,0,0,1.55-1.3l1.63-5a2.27,2.27,0,0,0,.11-.69,1.66,1.66,0,0,0-1.24-1.52l-3.25-1a1.63,1.63,0,0,1-1-1.63,2.32,2.32,0,0,1,.06-.53c.21-1,.47-4.31.72-5.91v-.06l0-.11h0v0h0v0h0v0h0v0h0v0h0a1.44,1.44,0,0,1,.87-.92h0l.12,0,.07,0h.06l.24,0h.11s1.3-.12,3.24-.25a1.53,1.53,0,0,0,1.56-1.67A2.35,2.35,0,0,0,237.54,102.43Zm-52.8,33.47h-.2a31.83,31.83,0,0,1,.2-63.67h.19a31.83,31.83,0,0,1-.19,63.67Z"/></g></mask><filter id="luminosity-noclip-11" x="88.48" y="159.33" width="55.33" height="55.32" filterUnits="userSpaceOnUse" color-interpolation-filters="sRGB"><feFlood flood-color="#fff" result="bg"/><feBlend in="SourceGraphic" in2="bg"/></filter><mask id="mask-11" x="88.48" y="159.33" width="55.33" height="55.32" maskUnits="userSpaceOnUse"><g class="cls-11"><path class="cls-12" d="M143.8,186.14s-.15-1.86-.21-2.78v0h0v0a.86.86,0,0,0-.91-.77h-.1l-1.89.16h-.06c-.63,0-.79-.86-.79-.88-.05-.19-.28-1.23-.72-2.5a2.59,2.59,0,0,1-.14-.76c0-.61.38-.74.38-.74l1.75-.89a.75.75,0,0,0,.46-.69,1.15,1.15,0,0,0-.14-.53l-1.33-2.61h0l0,0h0a.73.73,0,0,0-.68-.42h0a1.13,1.13,0,0,0-.53.14l-1.65.84a.45.45,0,0,1-.23.05,1.23,1.23,0,0,1-.88-.44h0c-.1-.21-1.25-1.65-1.88-2.42a1.17,1.17,0,0,1-.33-.73.43.43,0,0,1,.16-.35l1.28-1.5a.92.92,0,0,0,.25-.61.89.89,0,0,0-.28-.62l-2.31-2h0a.83.83,0,0,0-.52-.21h0a1,1,0,0,0-.63.28h0l-.06.06-1.32,1.54a.53.53,0,0,1-.41.17,1.72,1.72,0,0,1-.71-.21c-.47-.42-2.13-1.16-2.86-1.63-.35-.23-.45-.45-.45-.63a.51.51,0,0,1,.11-.3l0-.14c.09-.27.29-.9.53-1.6a1.11,1.11,0,0,0,.05-.36.88.88,0,0,0-.65-.8l-.1,0-2.68-.87h0a1.08,1.08,0,0,0-.32,0h0a.86.86,0,0,0-.78.6l-.65,2v0c-.1.27-.55.32-.85.33h-.24a26.8,26.8,0,0,0-2.83-.34c-1-.08-1-.7-1-.7s-.05-.78-.15-1.86c-.07-.8-.6-.92-.87-.92h-.16l-2.86.23a.91.91,0,0,0-.83,1h0v0c0,.2.1,1.4.15,1.92v.07c0,.47-.39.66-.76.75l-.12,0a24.26,24.26,0,0,0-2.81.8h0a1.37,1.37,0,0,1-.45.09h0a.83.83,0,0,1-.8-.62l-.7-1.36v0h0v0h0a.94.94,0,0,0-.83-.56h0a.88.88,0,0,0-.37.08l-2.72,1.39a.73.73,0,0,0-.43.68,1.27,1.27,0,0,0,.11.5l.87,1.69h0a.75.75,0,0,1,.06.3,1.1,1.1,0,0,1-.51.83c-.36.24-1.41,1-2.29,1.8l0,0h0a1.22,1.22,0,0,1-.74.31h0a.85.85,0,0,1-.63-.31l-1.28-1.09a.9.9,0,0,0-.57-.22,1,1,0,0,0-.59.21L94.35,170l-.12.14,0,0a.92.92,0,0,0-.24.58,1,1,0,0,0,.32.69l1.51,1.28a.59.59,0,0,1,.19.47,1.74,1.74,0,0,1-.2.71,22.81,22.81,0,0,0-1.47,2.61c-.26.51-.57.63-.82.63a.78.78,0,0,1-.4-.11l-1.59-.51a1.15,1.15,0,0,0-.35-.06.91.91,0,0,0-.8.53l-.89,2.74a.93.93,0,0,0,.47,1.26l2,.64c.52.17.42,1.08.42,1.08-.1.46-.26,1.83-.35,2.89s-.78,1-.88,1h0l-1.67.13a.91.91,0,0,0-.9,1.13l.2,2.6c.08.89.62,1,.88,1l.13,0,1.64-.12h.12a.91.91,0,0,1,1,.81c.12.68.68,2.23.84,3.05s-.29,1-.29,1l-1.66.85a.93.93,0,0,0-.44,1.38l1.29,2.53a.75.75,0,0,0,.7.46,1.47,1.47,0,0,0,.68-.2l1.56-.8a.61.61,0,0,1,.28-.07,1.19,1.19,0,0,1,.9.66c.24.41,1.3,1.68,1.82,2.34s.06,1.08.06,1.08l-1.17,1.36a1,1,0,0,0,0,1.31s1.44,1.3,2.23,1.9a1,1,0,0,0,.61.24,1,1,0,0,0,.74-.38l1.25-1.46a.62.62,0,0,1,.47-.17,1.26,1.26,0,0,1,.68.21c.41.27,1.73,1,2.59,1.45s.6,1.08.6,1.08-.13.4-.5,1.56.46,1.36.46,1.36l2.68.86a1.39,1.39,0,0,0,.45.08.85.85,0,0,0,.83-.62l.62-1.89c.11-.34.45-.43.79-.43a3.88,3.88,0,0,1,.72.09c.36.06,1.43.19,2.51.27s1,.87,1,.87l.14,1.82c.06.71.76.78,1,.78H117l2.61-.21c1.15-.09,1-1.06,1-1.06s-.08-1-.14-1.76.74-.95,1-1,1.44-.37,2.58-.73a1.88,1.88,0,0,1,.55-.1.73.73,0,0,1,.77.52l.84,1.64a.73.73,0,0,0,.71.41,1.33,1.33,0,0,0,.42-.07l2.69-1.37a.88.88,0,0,0,.3-1.3l-.79-1.55c-.25-.48.1-1,.57-1.28s1.68-1.3,2.38-1.85h0a1,1,0,0,1,.58-.24h0l.2,0a.53.53,0,0,1,.26.2l1.33,1.13a1.08,1.08,0,0,0,.69.3h0a.92.92,0,0,0,.7-.35h0l1.9-2.23a.83.83,0,0,0,.24-.56,1,1,0,0,0-.4-.71l-1.48-1.26a.53.53,0,0,1-.19-.43,1.65,1.65,0,0,1,.26-.77c.22-.3,1.08-1.87,1.55-2.74h0l0,0v0a.76.76,0,0,1,.65-.46h0a.78.78,0,0,1,.44.16l1.51.49h0a1.42,1.42,0,0,0,.4.07h0a.87.87,0,0,0,.82-.7l.87-2.67a1.18,1.18,0,0,0,.06-.37.89.89,0,0,0-.66-.81l-1.72-.56a.86.86,0,0,1-.57-.87,2.66,2.66,0,0,1,0-.28c.12-.54.26-2.29.38-3.14h0V188h0v0h0a.76.76,0,0,1,.46-.49h.34s.69-.07,1.73-.13a.82.82,0,0,0,.83-.9A.78.78,0,0,0,143.8,186.14ZM115.69,204h-.11a17,17,0,0,1,.11-33.91h.1a17,17,0,0,1-.1,33.91Z"/></g></mask><filter id="luminosity-noclip-12" x="298.23" y="184.07" width="40.51" height="41.11" filterUnits="userSpaceOnUse" color-interpolation-filters="sRGB"><feFlood flood-color="#fff" result="bg"/><feBlend in="SourceGraphic" in2="bg"/></filter><mask id="mask-12" x="298.23" y="184.07" width="40.51" height="41.11" maskUnits="userSpaceOnUse"><g class="cls-13"><path class="cls-14" d="M338,202.2l-2.68-.6a16.92,16.92,0,0,0-1.07-3.61l2.06-1.95a.52.52,0,0,0,.27-.69l-1.33-2.56a.53.53,0,0,0-.72-.18l-3.25.67a17,17,0,0,0-2.51-2.31l.54-2.59a.52.52,0,0,0-.18-.72l-2.56-1.33a.53.53,0,0,0-.69.27l-1.78,1.89a17.22,17.22,0,0,0-3.15-.76v0l-1.3-3.14a.52.52,0,0,0-.55-.49l-2.87.33a.53.53,0,0,0-.42.61l-.46,2.86a17.26,17.26,0,0,0-3.69,1.15l-2.48-2.14a.52.52,0,0,0-.71-.2l-2.41,1.59a.53.53,0,0,0-.11.73l1,3.12a17,17,0,0,0-1.94,2.15l-3.16-.6a.52.52,0,0,0-.71.19l-1.29,2.58a.53.53,0,0,0,.27.69l2.27,2.07a17.31,17.31,0,0,0-.73,3.1l-2.92,1.2a.52.52,0,0,0-.5.54l.32,2.87a.53.53,0,0,0,.6.43l2.65.44a17.13,17.13,0,0,0,1.37,4.25l-1.8,1.23a.52.52,0,0,0-.37.63l.92,2.74a.52.52,0,0,0,.68.29l3.39-.17a.56.56,0,0,0,.32-.26,17.32,17.32,0,0,0,1.62,1.46l-.11.17-.35,3.38a.52.52,0,0,0,.25.7l2.68,1.07a.52.52,0,0,0,.66-.33l1.75-2.26a17.21,17.21,0,0,0,3.27.81v0l1.28,3.15a.52.52,0,0,0,.54.5l2.87-.31a.53.53,0,0,0,.43-.6l.49-2.9a17.34,17.34,0,0,0,3.09-.88l2.06,2.36a.52.52,0,0,0,.68.29l2.61-1.23a.52.52,0,0,0,.21-.7l-.56-3.35-.21-.24a17,17,0,0,0,2.24-2.3l.15.1,3.37.4a.52.52,0,0,0,.7-.24l1.11-2.66a.53.53,0,0,0-.32-.67l-2.25-1.79a17.45,17.45,0,0,0,.86-3.45l2.78-1a.52.52,0,0,0,.52-.52l-.16-2.88A.52.52,0,0,0,338,202.2Zm-13.73,2.69-.15.14-.79.28a4.81,4.81,0,0,1-.24,1l.64.51.09.19-.32.76-.2.07-1-.11,0,0a4.6,4.6,0,0,1-.64.65l.06.07.16,1-.07.2-.74.35-.19-.09-.59-.67a5.26,5.26,0,0,1-.87.25l-.14.82-.12.17-.82.09-.16-.14-.36-.89h0a4.49,4.49,0,0,1-.93-.23l-.5.64-.19.1-.76-.31-.07-.19.1-1,0-.05a4.92,4.92,0,0,1-.46-.41l-.09.07-1,0-.19-.08-.26-.77.1-.18.51-.35a5.15,5.15,0,0,1-.39-1.21l-.75-.12-.17-.12-.09-.81.14-.16.83-.34a4.73,4.73,0,0,1,.2-.88l-.65-.59-.08-.19.37-.74.2-.05.9.17a4.87,4.87,0,0,1,.55-.61l-.28-.89,0-.2.68-.45.21.05.7.61a4.76,4.76,0,0,1,1-.33l.13-.81.12-.17.81-.1.16.14.37.89h0a4.66,4.66,0,0,1,.89.22l.51-.54.19-.07.73.38.05.2-.15.74a4.66,4.66,0,0,1,.71.66l.93-.19.2,0,.38.73-.07.2-.59.55a5,5,0,0,1,.3,1l.76.17.16.13Z"/></g></mask><filter id="luminosity-noclip-13" x="272.97" y="227.38" width="71.99" height="72.81" filterUnits="userSpaceOnUse" color-interpolation-filters="sRGB"><feFlood flood-color="#fff" result="bg"/><feBlend in="SourceGraphic" in2="bg"/></filter><mask id="mask-13" x="272.97" y="227.38" width="71.99" height="72.81" maskUnits="userSpaceOnUse"><g class="cls-15"><path class="cls-16" d="M344.05,264.74,339.48,263a30.77,30.77,0,0,0-.93-6.68l4.18-2.88a.93.93,0,0,0,.65-1.14l-1.66-4.9a.94.94,0,0,0-1.22-.51l-5.94.3a30.86,30.86,0,0,0-3.82-4.76l1.65-4.43a.93.93,0,0,0-.12-1.31l-4.17-3.05a.94.94,0,0,0-1.29.28l-3.67,2.87a30.39,30.39,0,0,0-5.36-2.2l0,0-1.45-5.9a.94.94,0,0,0-.84-1l-5.17-.18a.92.92,0,0,0-.91,1l-1.6,4.94a30.93,30.93,0,0,0-6.84,1l-3.81-4.46a.94.94,0,0,0-1.21-.54l-4.69,2.15a.94.94,0,0,0-.39,1.26l.89,5.8a30.38,30.38,0,0,0-4,3.27l-5.44-1.91A.93.93,0,0,0,281,240l-3,4.22a.94.94,0,0,0,.29,1.29l3.47,4.29a30.22,30.22,0,0,0-2.13,5.29l-5.5,1.32a.93.93,0,0,0-1,.83l-.21,5.16a.94.94,0,0,0,1,.92l4.56,1.5a30.33,30.33,0,0,0,1.29,7.9l-3.52,1.7a.94.94,0,0,0-.82,1l.88,5.08a1,1,0,0,0,1.13.7l6,.63a1,1,0,0,0,.65-.37,30.69,30.69,0,0,0,2.48,3l-.24.29-1.54,5.88a.93.93,0,0,0,.26,1.3l4.44,2.62a.93.93,0,0,0,1.26-.41l3.71-3.53a30.38,30.38,0,0,0,5.56,2.32V293l1.41,5.91a.93.93,0,0,0,.83,1l5.16.22a.93.93,0,0,0,.92-.94l1.66-5a30.55,30.55,0,0,0,5.7-.72l3,4.74a.94.94,0,0,0,1.12.7l5-1.47a1,1,0,0,0,.56-1.19l-.08-6.08a1,1,0,0,0-.31-.47,30.77,30.77,0,0,0,4.57-3.46l.24.21,5.86,1.62a.94.94,0,0,0,1.3-.23l2.69-4.41a.93.93,0,0,0-.39-1.26l-3.49-3.78a30.3,30.3,0,0,0,2.46-5.87l5.17-.94a.94.94,0,0,0,1.07-.77l.5-5.15A.94.94,0,0,0,344.05,264.74Zm-36.23,22.74a24.91,24.91,0,0,1-23.74-23.84l21.42,0a3.65,3.65,0,0,0,2.37,2.38Zm.06-28.36a3.62,3.62,0,0,0-2.37,2.37l-21.42,0a24.91,24.91,0,0,1,23.84-23.74ZM310,287.49l0-21.42a3.61,3.61,0,0,0,2.38-2.37l21.43,0A24.91,24.91,0,0,1,310,287.49Zm2.42-26a3.64,3.64,0,0,0-2.37-2.37l0-21.42a24.9,24.9,0,0,1,23.74,23.83Z"/></g></mask><radialGradient id="radial-gradient-9" cx="101.02" cy="758.19" r="41.32" gradientTransform="translate(220.46 -400.47) scale(0.88)" gradientUnits="userSpaceOnUse"><stop offset="0" stop-color="#f29e1f"/><stop offset="1" stop-color="#f29e1f"/></radialGradient><filter id="luminosity-noclip-14" x="123.76" y="197.42" width="88.84" height="90.89" filterUnits="userSpaceOnUse" color-interpolation-filters="sRGB"><feFlood flood-color="#fff" result="bg"/><feBlend in="SourceGraphic" in2="bg"/></filter><mask id="mask-14" x="123.76" y="197.42" width="88.84" height="90.89" maskUnits="userSpaceOnUse"><g class="cls-3"><path class="cls-4" d="M206.33,256.48a49.09,49.09,0,0,1-8.44-1.36,30.57,30.57,0,0,1-5,7.4l-2.35-2.36a28.19,28.19,0,0,1-2.24,2.09l2.4,2.42a32,32,0,0,1-18.77,7.84v-4l-.83,0c-.75,0-1.5,0-2.23-.1v4.17a27.9,27.9,0,0,1-19.41-8.34l3.17-3.16a27.27,27.27,0,0,1-2.11-2.22L147.38,262a34.09,34.09,0,0,1-7.7-18.66h4.41c0-.62-.08-1.25-.08-1.88,0-.39,0-.78,0-1.17h-4.49a27.83,27.83,0,0,1,7.93-19l2.89,2.9a28.64,28.64,0,0,1,2.09-2.23l-2.77-2.78a34,34,0,0,1,13.3-7c-.16-.72-.31-1.45-.44-2.17a41.36,41.36,0,0,1-.7-6.1c-.5.09-1,.2-1.49.32l-3.07-6.82-2.92.87,1.41,7.3a39.32,39.32,0,0,0-4.88,2.31l-4.75-5.65-2.57,1.65,3.28,6.59a39.23,39.23,0,0,0-4.26,3.65l-5.89-4.3-2.09,2.22,4.8,5.63a38.56,38.56,0,0,0-3.41,5.07l-7-2.49L127.65,223l6.28,4.08a38.39,38.39,0,0,0-1.41,4l-7.39-.68-.64,3,7,2.36c-.2,1.21-.25,2.44-.32,3.69l-7.4.89v3l7.4.89c.07,1.22.15,2.42.33,3.61l-7,2.33.63,3,7.31-.67a41.29,41.29,0,0,0,1.4,4.1l-6.2,4,1.36,2.71,6.89-2.45a39.89,39.89,0,0,0,3.42,5.15l-4.68,5.49,2.09,2.21,5.73-4.16a40.83,40.83,0,0,0,4.32,3.73l-3.18,6.38,2.57,1.64,4.58-5.44a40.79,40.79,0,0,0,5,2.4l-1.35,7,2.92.9,2.95-6.47a39.39,39.39,0,0,0,7.23,1.22l.87,7.33h3l.86-7.3a39.21,39.21,0,0,0,8-1.32l3,6.56,2.89-.92-1.37-7.19a40,40,0,0,0,4.86-2.38l4.65,5.57,2.54-1.64-3.23-6.54a41.8,41.8,0,0,0,4.21-3.67l5.82,4.27,2.07-2.21-4.75-5.63a39.65,39.65,0,0,0,3.35-5.06l7,2.5,1.35-2.71-6.28-4.11Z"/></g></mask><radialGradient id="radial-gradient-10" cx="-56.49" cy="733.63" r="53.22" xlink:href="#radial-gradient-9"/><filter id="luminosity-noclip-15" x="146.33" y="119.14" width="151.9" height="154.16" filterUnits="userSpaceOnUse" color-interpolation-filters="sRGB"><feFlood flood-color="#fff" result="bg"/><feBlend in="SourceGraphic" in2="bg"/></filter><mask id="mask-15" x="146.33" y="119.14" width="151.9" height="154.16" maskUnits="userSpaceOnUse"><g class="cls-5"><path class="cls-6" d="M297.63,188.84a2,2,0,0,0-2.16-1.72l-10-2.26a64,64,0,0,0-4-13.54l7.74-7.29a2,2,0,0,0,1-2.57l-5-9.61a2,2,0,0,0-2.68-.68l-12.19,2.51a64.75,64.75,0,0,0-9.4-8.66l2-9.7a2,2,0,0,0-.66-2.68l-9.61-5a2,2,0,0,0-2.59,1l-8.43,7.09A86.47,86.47,0,0,0,228,132.87v-.11L224.92,121c-.14-1.14-.17-2-1.2-1.85l-10.3,1.26c-1,.12-1.49,1.12-1.37,2.27l-1.61,10.75a64,64,0,0,0-13.79,4.29l-9.28-8a1.94,1.94,0,0,0-2.65-.75l-9,6a2,2,0,0,0-.42,2.74L179,149.36a64,64,0,0,0-7.25,8l-11.87-2.23a2,2,0,0,0-2.68.7l-4.83,9.68a2,2,0,0,0,1,2.59l8.52,7.77a64.64,64.64,0,0,0-2.72,11.62l-11,4.49a2,2,0,0,0-1.85,2l1.2,10.76a2,2,0,0,0,2.27,1.6l9.92,1.65A63.74,63.74,0,0,0,164.88,224l-6.74,4.64a2,2,0,0,0-1.39,2.4l3.46,10.24a2,2,0,0,0,2.55,1.09l12.73-.62a2.13,2.13,0,0,0,1.2-1,67.34,67.34,0,0,0,6.08,5.48l-.41.65L181,259.58a2,2,0,0,0,.92,2.62l10,4A2,2,0,0,0,194.5,265l6.55-8.48a64.07,64.07,0,0,0,12.28,3l0,.1,4.79,11.8a2,2,0,0,0,2,1.88l10.76-1.18a2,2,0,0,0,1.6-2.24L234.35,259a63.8,63.8,0,0,0,11.57-3.31l7.72,8.86a2,2,0,0,0,2.53,1.09L266,261a2,2,0,0,0,.78-2.65l-2.09-12.56-.8-.9a62.84,62.84,0,0,0,8.4-8.6l.57.36,12.64,1.52a2,2,0,0,0,2.63-.89l4.16-10a2,2,0,0,0-1.18-2.49l-8.44-6.71a63.65,63.65,0,0,0,3.23-12.94l10.41-3.6a2,2,0,0,0,2-1.94ZM171.94,200.41a3.28,3.28,0,1,1,3.28-3.27A3.27,3.27,0,0,1,171.94,200.41Zm83.63-41.18a3.28,3.28,0,1,1,0,4.63A3.27,3.27,0,0,1,255.56,159.23Zm-33.28-15.71A3.28,3.28,0,1,1,219,146.8,3.28,3.28,0,0,1,222.28,143.52Zm-37.92,15.71a3.28,3.28,0,1,1,0,4.63A3.28,3.28,0,0,1,184.36,159.23ZM189,235a3.28,3.28,0,1,1,0-4.63A3.28,3.28,0,0,1,189,235Zm33.28,15.7a3.28,3.28,0,1,1,3.28-3.28A3.28,3.28,0,0,1,222.28,250.75ZM260.19,235a3.27,3.27,0,1,1,0-4.63A3.27,3.27,0,0,1,260.19,235Zm-37.91,5a43.84,43.84,0,1,1,43.83-43.84A43.83,43.83,0,0,1,222.28,240.06Zm50.34-39.65a3.28,3.28,0,1,1,3.28-3.27A3.28,3.28,0,0,1,272.62,200.41Z"/></g></mask><filter id="luminosity-noclip-16" x="79.4" y="253.62" width="54.25" height="54.19" filterUnits="userSpaceOnUse" color-interpolation-filters="sRGB"><feFlood flood-color="#fff" result="bg"/><feBlend in="SourceGraphic" in2="bg"/></filter><mask id="mask-16" x="79.4" y="253.62" width="54.25" height="54.19" maskUnits="userSpaceOnUse"><g class="cls-7"><path class="cls-8" d="M133.63,279.85s-.18-1.83-.25-2.73l0,0h0a.78.78,0,0,0-.81-.8h-.1l-1.85.18h-.07c-.62,0-.78-.84-.78-.85a24.37,24.37,0,0,0-.7-2.46,2.11,2.11,0,0,1-.15-.74c0-.6.38-.72.38-.72l1.72-.88a.72.72,0,0,0,.44-.67,1.16,1.16,0,0,0-.14-.52l-1.3-2.55s-.29-.62-.55-.56a3,3,0,0,0-.59.24l-1.66.83-.24,0a1.25,1.25,0,0,1-.88-.43h0c-.09-.2-1.22-1.62-1.84-2.37a1.16,1.16,0,0,1-.33-.71.41.41,0,0,1,.16-.35l1.25-1.48a.91.91,0,0,0,.25-.6.92.92,0,0,0-.28-.61l-2.54-2A.57.57,0,0,0,122,259l-.32.39-1.18,1.42a.47.47,0,0,1-.4.15,1.64,1.64,0,0,1-.7-.21c-.46-.41-2.1-1.14-2.81-1.61-.35-.22-.44-.45-.44-.61a.49.49,0,0,1,.1-.3l0-.14.5-1.56a1.08,1.08,0,0,0,.07-.35.87.87,0,0,0-.64-.79l-.09,0-2.64-.86h0l-.34-.12c-.48-.17-.74.95-.74.95s-.51,1.42-.64,1.83h0c-.1.26-1.07.06-1.07.06-.39-.1-1.79-.19-2.79-.27s-1-.65-1-.65-.05-.72-.15-1.77c-.06-.79-.59-.85-.85-.85h0l-.13,0-2.65.2a.9.9,0,0,0-.8,1h0c0,.2,0,1.38.07,1.88h0c0,.45-.44.72-.81.81l-.12,0a24.8,24.8,0,0,0-2.75.79h0a.85.85,0,0,1-.32.08.84.84,0,0,1-.82-.56h0s-.19-.48-.66-1.39l-.25-.46c-.16-.4-.42-.13-.72,0l-.37.22s-1.94.85-2.66,1.22c-.34.17-.43.31-.43.54a.51.51,0,0,0,.12.38l.85,1.5.2.65c0,.32-.36.47-.64.66s-1.37,1.06-2.24,1.8l0,0h0a1.16,1.16,0,0,1-.73.29h0a.84.84,0,0,1-.62-.28l-1.25-1.06a.85.85,0,0,0-.55-.21,1,1,0,0,0-.58.22l-1.8,2.1-.12.14,0,0a.91.91,0,0,0-.23.58,1,1,0,0,0,.32.67l1.47,1.25a.57.57,0,0,1,.19.46,1.66,1.66,0,0,1-.2.7,22.49,22.49,0,0,0-1.43,2.57c-.25.49-.57.61-.81.61a.77.77,0,0,1-.39-.11l-1.55-.5-.34-.05a.89.89,0,0,0-.79.51s-.57,1.74-.87,2.69a.91.91,0,0,0,.45,1.23l1.93.63c.51.16.41,1.06.41,1.06a24.82,24.82,0,0,0-.34,2.53c-.08,1-.84,1-.93,1h0a15.46,15.46,0,0,1-1.57.17c-1.11.1-.88,1.27-.88,1.27s.11,1.49.2,2.63c.07.86.6,1,.86,1h.12l1.61-.12h.12a.9.9,0,0,1,1,.79c.12.67.66,2.19.83,3s-.28.94-.28.94l-1.63.83a.9.9,0,0,0-.43,1.34l1.26,2.48a.75.75,0,0,0,.7.45,1.43,1.43,0,0,0,.67-.2l1.53-.79.27-.06a1.18,1.18,0,0,1,.89.65c.24.4,1.27,1.65,1.79,2.29s.05,1.05.05,1.05l-1.14,1.34a.94.94,0,0,0,0,1.29s1.41,1.28,2.19,1.86a1,1,0,0,0,.61.23,1,1,0,0,0,.72-.37l1.23-1.44a.59.59,0,0,1,.45-.17,1.26,1.26,0,0,1,.67.21c.39.27,1.7,1,2.54,1.42s.59,1.06.59,1.06l-.49,1.53c-.37,1.13.45,1.33.45,1.33l2.63.85a1.36,1.36,0,0,0,.45.08.85.85,0,0,0,.82-.6l.59-1.85c.11-.33.45-.42.78-.42a3.85,3.85,0,0,1,.7.08c.35.06,1.4.19,2.47.27s1,.85,1,.85.07.93.14,1.78c.06.7.74.76,1,.76h.09l2.55-.2c1.13-.09,1-1,1-1s-.09-1-.14-1.73.72-.94,1-1,1.41-.37,2.53-.73a1.78,1.78,0,0,1,.54-.1.7.7,0,0,1,.75.51l.83,1.61a.72.72,0,0,0,.69.41,1.26,1.26,0,0,0,.42-.07l2.63-1.34a.86.86,0,0,0,.29-1.28l-.78-1.52c-.24-.48.1-.94.55-1.26s1.65-1.27,2.33-1.82c0,0,.55-.51.7-.51l.32.38s.62.69,1.3,1.48a.9.9,0,0,0,1.36,0l2-2.27a1.16,1.16,0,0,0,.18-.7,1.07,1.07,0,0,0-.44-.73s-1-.88-1.45-1.26a.55.55,0,0,1-.18-.44,1.71,1.71,0,0,1,.25-.75c.22-.29.94-1.83,1.42-2.69h0l.07.16c.21-.35.49-.26.69-.26h0a3.21,3.21,0,0,0,.44,0,10.39,10.39,0,0,1,1.48.39v.11c.15.05.27.21.39.21h0c.67,0,.81-.85.81-.85s.55-1.79.86-2.71a1.16,1.16,0,0,0,.05-.4.89.89,0,0,0-.63-.81l-1.7-.56a.84.84,0,0,1-.54-.86l0-.28c.12-.53.25-2.25.37-3.08h0v-.35c.1-.29.36-.29.53-.35h0s1-.1,2-.16a.8.8,0,0,0,.82-.87A.57.57,0,0,0,133.63,279.85ZM105.89,263a17.6,17.6,0,0,1,12.27,5l-2.82,2.81c-.29-.26-.59-.52-.91-.75l.41-2a.4.4,0,0,0-.14-.55l-2-1a.41.41,0,0,0-.53.2l-1.6,1.46a19.14,19.14,0,0,0-2.64-.59h0l-.77-2.42c0-.23-.1-.4-.31-.38l-2.14.26a.39.39,0,0,0-.3.47l-.34,2.2a13.2,13.2,0,0,0-2.83.88l-1.91-1.65a.39.39,0,0,0-.54-.15L97,268a.4.4,0,0,0-.08.56l.52,1.64-2.95-2.95A17.59,17.59,0,0,1,105.89,263Zm7.21,12.61.29.08.54,1-.11.28-.84.79a6.69,6.69,0,0,1,.44,1.46l1.09.24.24.18.06,1.18-.21.2-1.12.39a7.45,7.45,0,0,1-.35,1.4l.91.73.14.27L113.7,285l-.28.1-1.31-.16-2.85-2.87a2.93,2.93,0,0,0,0-2.72l3.69-3.67Zm-1.71,11.64-.09.29-1.06.5-.27-.12-.84-1a6.67,6.67,0,0,1-1.25.36l-.2,1.18-.17.25-1.16.13-.41-.2-.7-1.28v0c0-.07-.71-.17-1.15-.32l-.61.92-.23.14-1.06-.44-.08-.28.11-1,3.1-3.08a3,3,0,0,0,2.72,0l3.27,3.28Zm-11.28-1.74-.27-.11-.38-1.12.15-.25.73-.52a6.92,6.92,0,0,1-.55-1.73l-1.08-.18-.25-.17-.13-1.17.21-.22,1.19-.49a6.44,6.44,0,0,1,.3-1.25l-.92-.84-.12-.29.53-1,.29-.08,1.24.24,3,3a2.92,2.92,0,0,0,0,2.71l-3.48,3.47Zm1.36-11.36,0-.3,1-.64.29.07,1,.88a6.61,6.61,0,0,1,1.5-.47l.19-1.16.17-.25,1.16-.13.43.2.73,1.27h0A9.27,9.27,0,0,0,109,274l.62-.77.24-.11,1,.55.06.28-.22,1.06.21.17L108,278.1a3,3,0,0,0-2.72,0l-3.81-3.82Zm-13.23,6.51a17.62,17.62,0,0,1,4.94-12.25L96.69,272c-.17.21-.35.41-.52.63l-2.43-.46a.41.41,0,0,0-.54.15l-1,2a.4.4,0,0,0,.21.53l1.74,1.59a12.34,12.34,0,0,0-.56,2.38l-2.25.92a.4.4,0,0,0-.38.42l.24,2.2a.42.42,0,0,0,.47.33l2,.34a13.54,13.54,0,0,0,1.05,3.27l-1.38.95a.41.41,0,0,0-.28.49l.71,2.1a.4.4,0,0,0,.52.22l1.84-.09-3,3A17.58,17.58,0,0,1,88.24,280.69Zm17.65,17.66a17.59,17.59,0,0,1-11.45-4.22l3.65-3.64.35.3-.09.13-.27,2.59a.39.39,0,0,0,.19.53l2.05.82a.4.4,0,0,0,.51-.25l1.27-1.74a16.25,16.25,0,0,0,2.43.62v0l1.06,2.42a.44.44,0,0,0,.46.38l2.22-.24a.41.41,0,0,0,.34-.46l.38-2.22a13.32,13.32,0,0,0,2.37-.68l1.59,1.81a.39.39,0,0,0,.51.22l2-.94a.4.4,0,0,0,.16-.54l-.42-2.57-.16-.19.06-.06,3,3A17.61,17.61,0,0,1,105.89,298.35Zm13.42-6.19-3-3c.14-.15.28-.29.4-.46l.12.07,2.59.31a.4.4,0,0,0,.54-.18l.85-2a.42.42,0,0,0-.25-.51L118.88,285a13.25,13.25,0,0,0,.67-2.65l2.13-.73a.41.41,0,0,0,.4-.4L122,279a.41.41,0,0,0-.44-.35l-2.06-.46a13.55,13.55,0,0,0-.83-2.77l1.59-1.49a.41.41,0,0,0,.2-.53l-1-2a.39.39,0,0,0-.54-.13l-1.91.39,2.42-2.4a17.63,17.63,0,0,1-.05,22.87Z"/></g></mask><radialGradient id="radial-gradient-11" cx="106.53" cy="280.71" r="27.11" gradientUnits="userSpaceOnUse"><stop offset="0.1" stop-color="#091410"/><stop offset="0.74" stop-color="#015b83"/></radialGradient></defs><title>howItWorks</title><g id="Layer_2" data-name="Layer 2"><g id="Layer_1-2" data-name="Layer 1"><rect class="cls-17" width="425.2" height="425.2"/><path class="cls-18" d="M369.38,347.91v-23a9.73,9.73,0,0,0-.1-1.45V300.68a6.53,6.53,0,0,0-6.63-6.42h-4.23l-9.26-11.77,3.26-7.43c.86-2,3.1-5.33,2.68-7.61-.72-3.85-6.27-5.26-8-1.28L343.64,274c-1,2.38-2.14,4.75-3.13,7.15-1.21,2.91.61,4.77,2.3,6.92l6.93,8.82.18.23a6.23,6.23,0,0,0-.42.71c-.24-.32-.47-.64-.7-.94l-6.93-8.82-.71-.88c-.22-.28-.44-.56-.65-.84l-.14-.2-.12-.17-.13-.2-.1-.17-.13-.21-.1-.17-.11-.22-.08-.16-.1-.25-.06-.14a3.9,3.9,0,0,1-.13-.39s0-.05,0-.08-.05-.22-.07-.33,0-.1,0-.15,0-.18,0-.27,0-.12,0-.17,0-.18,0-.27a1.78,1.78,0,0,1,0-.18,1.89,1.89,0,0,1,0-.28c0-.06,0-.12,0-.18l.08-.32,0-.16c0-.16.11-.33.18-.5l.24-.57c.93-2.21,1.93-4.39,2.89-6.58l3.44-7.85a4.57,4.57,0,0,1,.36-.67,3.5,3.5,0,0,0-3.5,2l-6.51,14.84A3.51,3.51,0,0,0,336,284s0,.1,0,.15,0,.09,0,.14a3.49,3.49,0,0,0,1,2.34l11.19,14.23a3.29,3.29,0,0,0,.56.59V325.5a6.12,6.12,0,0,0,.23,1.65l-7.51,8.51a5.18,5.18,0,0,0-1.57,3.79c0,.08,0,.17,0,.25v24.35c0,3.5,1.79,5.22,5.14,5.22,3,0,4.41-1.89,4.41-5.22v-23l8.07-9.14h2.26v17.34c0,.08,0,.17,0,.25a5.2,5.2,0,0,0,1.57,3.79L374,367.54a5.13,5.13,0,0,0,7.25.45c2.13-1.88,1.79-4.64-.09-6.77Z"/><path class="cls-18" d="M362.8,292.8a10,10,0,1,0-10-10A10,10,0,0,0,362.8,292.8Z"/><path class="cls-19" d="M46.29,308.89l10.3-12.69a6.66,6.66,0,0,1,5.86-3.42h7.2a6.65,6.65,0,0,1,5.87,3.44l6,8.27,16.47,6.83a3.77,3.77,0,0,1-1.41,7.41l-16.79-7a3.87,3.87,0,0,1-1.08-.38,3.45,3.45,0,0,1-1.62-1.25l-.77-1.07v53.48c0,3.27-1.37,5.13-4.41,5.13-3.34,0-5.13-1.68-5.13-5.13V330.44H65.37v32.11c0,3.27-1.38,5.13-4.41,5.13-3.34,0-5.13-1.68-5.13-5.13V309.12l-3.23,4v15.72a3.58,3.58,0,0,1-7.16,0V311.71c0-.07,0-.13,0-.2A3.76,3.76,0,0,1,46.29,308.89Z"/><path class="cls-19" d="M64.7,291.32a10,10,0,1,1,10-10A10,10,0,0,1,64.7,291.32Z"/><g class="cls-20"><path class="cls-21" d="M328.68,104.62v-2.46l-5.83-.7a30.2,30.2,0,0,0-.28-3l5.77-2-.51-2.4-6.07.56a30.57,30.57,0,0,0-1.12-3.22L325.82,88l-1.1-2.2-5.79,2.07a31.45,31.45,0,0,0-2.71-4.05l4-4.68-1.69-1.8-4.87,3.57A30.51,30.51,0,0,0,310.24,78L313,72.54l-2.07-1.34L307,75.88A32.69,32.69,0,0,0,303.1,74L304.26,68l-2.36-.74-2.51,5.55a31.64,31.64,0,0,0-6.28-.68l-.71-5.63h-2.47l-.71,5.63a32.34,32.34,0,0,0-6,.76l-2.5-5.54-2.37.7,1.14,5.92a31.34,31.34,0,0,0-4,1.87l-3.87-4.59-2.09,1.34,2.68,5.35a31.47,31.47,0,0,0-3.48,3L264,77.36l-1.71,1.8,3.91,4.57a31.25,31.25,0,0,0-2.78,4.12l-5.71-2L256.61,88l5.12,3.31a31.51,31.51,0,0,0-1.15,3.29l-6-.55-.52,2.4,5.7,1.91c-.16,1-.62,2-.69,3l-6.46.72v2.46l6.45.72c.06,1,.34,2,.48,2.93l-5.57,1.9.57,2.4,6-.55a31.43,31.43,0,0,0,1.15,3.33l-5,3.26,1.11,2.21,5.61-2a31.69,31.69,0,0,0,2.79,4.18l-3.82,4.46,1.71,1.8,4.66-3.38a32.61,32.61,0,0,0,3.52,3l-2.6,5.17,2.09,1.34,3.74-4.42a32.3,32.3,0,0,0,4.06,1.94l-1.1,5.72,2.37.74,2.41-5.26a31.77,31.77,0,0,0,5.88,1.28l.7,6.25h2.47l.7-6.22a32.49,32.49,0,0,0,6.56-1.21l2.42,5.25,2.36-.78-1.11-5.85a33,33,0,0,0,4-1.94l3.79,4.52L313,134l-2.63-5.31a31.5,31.5,0,0,0,3.43-3l4.74,3.47,1.69-1.8-3.88-4.56a31.8,31.8,0,0,0,2.74-4.12l5.68,2,1.1-2.21-5.11-3.32a33.75,33.75,0,0,0,1.11-3.26l6,.55.51-2.4-5.72-1.94c.14-.94.15-1.9.2-2.86Zm-37.44,24.86A26.47,26.47,0,1,1,317.82,103,26.55,26.55,0,0,1,291.24,129.48Z"/></g><g class="cls-22"><path class="cls-23" d="M237.54,102.43l-.42-5.23v-.1a1.62,1.62,0,0,0-1.69-1.45h-.21l-3.56.29h-.1c-1.2,0-1.48-1.62-1.48-1.64a47.14,47.14,0,0,0-1.34-4.71,4.84,4.84,0,0,1-.27-1.43c0-1.14.72-1.38.72-1.38l3.28-1.68a1.39,1.39,0,0,0,.86-1.29,2.14,2.14,0,0,0-.27-1l-2.5-4.89h0l0-.06h0v0a1.41,1.41,0,0,0-1.28-.79h0a2.15,2.15,0,0,0-1,.27l-3.1,1.58a1,1,0,0,1-.45.09,2.33,2.33,0,0,1-1.64-.82h0c-.19-.38-2.34-3.1-3.53-4.54a2.15,2.15,0,0,1-.62-1.35.83.83,0,0,1,.3-.67s1.3-1.53,2.39-2.83a1.74,1.74,0,0,0,.48-1.14,1.71,1.71,0,0,0-.53-1.17l-4.35-3.71,0,0h0a1.5,1.5,0,0,0-1-.38h0a1.8,1.8,0,0,0-1.2.52h0l-.1.12-2.48,2.89a1,1,0,0,1-.77.33,3.2,3.2,0,0,1-1.34-.4c-.89-.77-4-2.18-5.38-3.07-.65-.44-.83-.85-.83-1.17a1,1,0,0,1,.2-.57l.08-.27c.18-.51.56-1.69,1-3a2.6,2.6,0,0,0,.11-.68,1.64,1.64,0,0,0-1.22-1.51l-.18-.05-5-1.64h0a2,2,0,0,0-.58-.1h0a1.63,1.63,0,0,0-1.46,1.13s-1,3-1.22,3.77v0c-.19.51-1,.61-1.59.62h-.44a50.68,50.68,0,0,0-5.33-.64c-1.91-.15-1.94-1.31-1.94-1.31s-.11-1.47-.29-3.49c-.14-1.51-1.14-1.72-1.64-1.73h0l-.24,0-5.38.42a1.71,1.71,0,0,0-1.55,1.79h0v.06c0,.39.2,2.63.28,3.61v.13c0,.87-.73,1.24-1.44,1.42l-.23,0a46.84,46.84,0,0,0-5.27,1.5h0a2.72,2.72,0,0,1-.85.16h0a1.56,1.56,0,0,1-1.5-1.17s-.42-.84-1.32-2.57v0h0l0,0h0a1.76,1.76,0,0,0-1.55-1.06h0a1.72,1.72,0,0,0-.71.15l-5.09,2.61a1.38,1.38,0,0,0-.82,1.28,2.34,2.34,0,0,0,.22.95s1.24,2.4,1.63,3.18h0a1.41,1.41,0,0,1,.12.55,2,2,0,0,1-1,1.56c-.68.45-2.63,2-4.31,3.38l0,0v0h0a2.2,2.2,0,0,1-1.38.58h0a1.59,1.59,0,0,1-1.2-.59l-2.4-2a1.59,1.59,0,0,0-1-.41,1.88,1.88,0,0,0-1.11.4s-2.24,2.61-3.45,4l-.23.26-.07.07a1.69,1.69,0,0,0-.44,1.11,1.91,1.91,0,0,0,.6,1.28s2,1.7,2.82,2.4a1.11,1.11,0,0,1,.35.88,3.32,3.32,0,0,1-.37,1.35,40.7,40.7,0,0,0-2.76,4.9c-.47,1-1.07,1.19-1.54,1.19a1.51,1.51,0,0,1-.76-.21l-3-1a1.92,1.92,0,0,0-.64-.11,1.72,1.72,0,0,0-1.51,1l-1.67,5.14a1.74,1.74,0,0,0,.88,2.36l3.67,1.2c1,.31.78,2,.78,2-.19.86-.47,3.43-.65,5.43s-1.47,1.92-1.66,1.92h0l-3.12.25a1.7,1.7,0,0,0-1.7,2.12s.23,2.72.39,4.89c.14,1.67,1.16,1.86,1.64,1.86l.25,0,3.08-.24h.23a1.72,1.72,0,0,1,1.86,1.5c.22,1.28,1.28,4.19,1.59,5.74s-.54,1.8-.54,1.8l-3.13,1.58a1.74,1.74,0,0,0-.81,2.58l2.43,4.76A1.42,1.42,0,0,0,142,131a2.77,2.77,0,0,0,1.28-.38l2.93-1.5a1.18,1.18,0,0,1,.53-.13,2.25,2.25,0,0,1,1.68,1.25c.45.77,2.43,3.16,3.43,4.39s.1,2,.1,2l-2.19,2.56a1.79,1.79,0,0,0,0,2.46s2.71,2.45,4.2,3.57a1.89,1.89,0,0,0,1.15.44,1.86,1.86,0,0,0,1.37-.71l2.35-2.74a1.14,1.14,0,0,1,.89-.32,2.39,2.39,0,0,1,1.29.4c.75.51,3.24,1.91,4.83,2.71s1.14,2,1.14,2-.24.75-1,2.92.87,2.55.87,2.55l5,1.63a2.86,2.86,0,0,0,.84.15,1.61,1.61,0,0,0,1.56-1.16s.77-2.4,1.15-3.55c.2-.65.84-.81,1.48-.81a7.85,7.85,0,0,1,1.35.16c.68.11,2.69.36,4.72.51s1.84,1.64,1.84,1.64.15,1.78.27,3.41a1.7,1.7,0,0,0,1.9,1.46h.18l4.9-.39c2.15-.16,1.85-2,1.85-2s-.15-2-.26-3.31,1.4-1.79,1.93-1.87A49.49,49.49,0,0,0,200.5,147a3.48,3.48,0,0,1,1-.19,1.37,1.37,0,0,1,1.44,1l1.57,3.09a1.42,1.42,0,0,0,1.33.77,2.53,2.53,0,0,0,.79-.13l5.05-2.57a1.65,1.65,0,0,0,.54-2.45s-1-2-1.48-2.91.19-1.8,1.06-2.4,3.17-2.45,4.47-3.48h0a1.74,1.74,0,0,1,1.08-.46h0l.37.07a1.08,1.08,0,0,1,.47.37s1,.84,2.5,2.13a2,2,0,0,0,1.29.56h0a1.8,1.8,0,0,0,1.3-.65h0s2.43-2.84,3.57-4.18a1.6,1.6,0,0,0,.45-1,1.85,1.85,0,0,0-.76-1.34s-1.95-1.65-2.79-2.38a1,1,0,0,1-.35-.81,3.09,3.09,0,0,1,.48-1.43c.41-.57,2-3.5,2.93-5.16h0v0l0,0a1.45,1.45,0,0,1,1.21-.85h0a1.48,1.48,0,0,1,.84.3l2.85.93h0a2.54,2.54,0,0,0,.75.13h0a1.62,1.62,0,0,0,1.55-1.3l1.63-5a2.27,2.27,0,0,0,.11-.69,1.66,1.66,0,0,0-1.24-1.52l-3.25-1a1.63,1.63,0,0,1-1-1.63,2.32,2.32,0,0,1,.06-.53c.21-1,.47-4.31.72-5.91v-.06l0-.11h0v0h0v0h0v0h0v0h0v0h0a1.44,1.44,0,0,1,.87-.92h0l.12,0,.07,0h.06l.24,0h.11s1.3-.12,3.24-.25a1.53,1.53,0,0,0,1.56-1.67A2.35,2.35,0,0,0,237.54,102.43Zm-52.8,33.47h-.2a31.83,31.83,0,0,1,.2-63.67h.19a31.83,31.83,0,0,1-.19,63.67Z"/></g><g class="cls-24"><path class="cls-25" d="M143.8,186.14s-.15-1.86-.21-2.78v0h0v0a.86.86,0,0,0-.91-.77h-.1l-1.89.16h-.06c-.63,0-.79-.86-.79-.88-.05-.19-.28-1.23-.72-2.5a2.59,2.59,0,0,1-.14-.76c0-.61.38-.74.38-.74l1.75-.89a.75.75,0,0,0,.46-.69,1.15,1.15,0,0,0-.14-.53l-1.33-2.61h0l0,0h0a.73.73,0,0,0-.68-.42h0a1.13,1.13,0,0,0-.53.14l-1.65.84a.45.45,0,0,1-.23.05,1.23,1.23,0,0,1-.88-.44h0c-.1-.21-1.25-1.65-1.88-2.42a1.17,1.17,0,0,1-.33-.73.43.43,0,0,1,.16-.35l1.28-1.5a.92.92,0,0,0,.25-.61.89.89,0,0,0-.28-.62l-2.31-2h0a.83.83,0,0,0-.52-.21h0a1,1,0,0,0-.63.28h0l-.06.06-1.32,1.54a.53.53,0,0,1-.41.17,1.72,1.72,0,0,1-.71-.21c-.47-.42-2.13-1.16-2.86-1.63-.35-.23-.45-.45-.45-.63a.51.51,0,0,1,.11-.3l0-.14c.09-.27.29-.9.53-1.6a1.11,1.11,0,0,0,.05-.36.88.88,0,0,0-.65-.8l-.1,0-2.68-.87h0a1.08,1.08,0,0,0-.32,0h0a.86.86,0,0,0-.78.6l-.65,2v0c-.1.27-.55.32-.85.33h-.24a26.8,26.8,0,0,0-2.83-.34c-1-.08-1-.7-1-.7s-.05-.78-.15-1.86c-.07-.8-.6-.92-.87-.92h-.16l-2.86.23a.91.91,0,0,0-.83,1h0v0c0,.2.1,1.4.15,1.92v.07c0,.47-.39.66-.76.75l-.12,0a24.26,24.26,0,0,0-2.81.8h0a1.37,1.37,0,0,1-.45.09h0a.83.83,0,0,1-.8-.62l-.7-1.36v0h0v0h0a.94.94,0,0,0-.83-.56h0a.88.88,0,0,0-.37.08l-2.72,1.39a.73.73,0,0,0-.43.68,1.27,1.27,0,0,0,.11.5l.87,1.69h0a.75.75,0,0,1,.06.3,1.1,1.1,0,0,1-.51.83c-.36.24-1.41,1-2.29,1.8l0,0h0a1.22,1.22,0,0,1-.74.31h0a.85.85,0,0,1-.63-.31l-1.28-1.09a.9.9,0,0,0-.57-.22,1,1,0,0,0-.59.21L94.35,170l-.12.14,0,0a.92.92,0,0,0-.24.58,1,1,0,0,0,.32.69l1.51,1.28a.59.59,0,0,1,.19.47,1.74,1.74,0,0,1-.2.71,22.81,22.81,0,0,0-1.47,2.61c-.26.51-.57.63-.82.63a.78.78,0,0,1-.4-.11l-1.59-.51a1.15,1.15,0,0,0-.35-.06.91.91,0,0,0-.8.53l-.89,2.74a.93.93,0,0,0,.47,1.26l2,.64c.52.17.42,1.08.42,1.08-.1.46-.26,1.83-.35,2.89s-.78,1-.88,1h0l-1.67.13a.91.91,0,0,0-.9,1.13l.2,2.6c.08.89.62,1,.88,1l.13,0,1.64-.12h.12a.91.91,0,0,1,1,.81c.12.68.68,2.23.84,3.05s-.29,1-.29,1l-1.66.85a.93.93,0,0,0-.44,1.38l1.29,2.53a.75.75,0,0,0,.7.46,1.47,1.47,0,0,0,.68-.2l1.56-.8a.61.61,0,0,1,.28-.07,1.19,1.19,0,0,1,.9.66c.24.41,1.3,1.68,1.82,2.34s.06,1.08.06,1.08l-1.17,1.36a1,1,0,0,0,0,1.31s1.44,1.3,2.23,1.9a1,1,0,0,0,.61.24,1,1,0,0,0,.74-.38l1.25-1.46a.62.62,0,0,1,.47-.17,1.26,1.26,0,0,1,.68.21c.41.27,1.73,1,2.59,1.45s.6,1.08.6,1.08-.13.4-.5,1.56.46,1.36.46,1.36l2.68.86a1.39,1.39,0,0,0,.45.08.85.85,0,0,0,.83-.62l.62-1.89c.11-.34.45-.43.79-.43a3.88,3.88,0,0,1,.72.09c.36.06,1.43.19,2.51.27s1,.87,1,.87l.14,1.82c.06.71.76.78,1,.78H117l2.61-.21c1.15-.09,1-1.06,1-1.06s-.08-1-.14-1.76.74-.95,1-1,1.44-.37,2.58-.73a1.88,1.88,0,0,1,.55-.1.73.73,0,0,1,.77.52l.84,1.64a.73.73,0,0,0,.71.41,1.33,1.33,0,0,0,.42-.07l2.69-1.37a.88.88,0,0,0,.3-1.3l-.79-1.55c-.25-.48.1-1,.57-1.28s1.68-1.3,2.38-1.85h0a1,1,0,0,1,.58-.24h0l.2,0a.53.53,0,0,1,.26.2l1.33,1.13a1.08,1.08,0,0,0,.69.3h0a.92.92,0,0,0,.7-.35h0l1.9-2.23a.83.83,0,0,0,.24-.56,1,1,0,0,0-.4-.71l-1.48-1.26a.53.53,0,0,1-.19-.43,1.65,1.65,0,0,1,.26-.77c.22-.3,1.08-1.87,1.55-2.74h0l0,0v0a.76.76,0,0,1,.65-.46h0a.78.78,0,0,1,.44.16l1.51.49h0a1.42,1.42,0,0,0,.4.07h0a.87.87,0,0,0,.82-.7l.87-2.67a1.18,1.18,0,0,0,.06-.37.89.89,0,0,0-.66-.81l-1.72-.56a.86.86,0,0,1-.57-.87,2.66,2.66,0,0,1,0-.28c.12-.54.26-2.29.38-3.14h0V188h0v0h0a.76.76,0,0,1,.46-.49h.34s.69-.07,1.73-.13a.82.82,0,0,0,.83-.9A.78.78,0,0,0,143.8,186.14ZM115.69,204h-.11a17,17,0,0,1,.11-33.91h.1a17,17,0,0,1-.1,33.91Z"/></g><g class="cls-26"><path class="cls-23" d="M338,202.2l-2.68-.6a16.92,16.92,0,0,0-1.07-3.61l2.06-1.95a.52.52,0,0,0,.27-.69l-1.33-2.56a.53.53,0,0,0-.72-.18l-3.25.67a17,17,0,0,0-2.51-2.31l.54-2.59a.52.52,0,0,0-.18-.72l-2.56-1.33a.53.53,0,0,0-.69.27l-1.78,1.89a17.22,17.22,0,0,0-3.15-.76v0l-1.3-3.14a.52.52,0,0,0-.55-.49l-2.87.33a.53.53,0,0,0-.42.61l-.46,2.86a17.26,17.26,0,0,0-3.69,1.15l-2.48-2.14a.52.52,0,0,0-.71-.2l-2.41,1.59a.53.53,0,0,0-.11.73l1,3.12a17,17,0,0,0-1.94,2.15l-3.16-.6a.52.52,0,0,0-.71.19l-1.29,2.58a.53.53,0,0,0,.27.69l2.27,2.07a17.31,17.31,0,0,0-.73,3.1l-2.92,1.2a.52.52,0,0,0-.5.54l.32,2.87a.53.53,0,0,0,.6.43l2.65.44a17.13,17.13,0,0,0,1.37,4.25l-1.8,1.23a.52.52,0,0,0-.37.63l.92,2.74a.52.52,0,0,0,.68.29l3.39-.17a.56.56,0,0,0,.32-.26,17.32,17.32,0,0,0,1.62,1.46l-.11.17-.35,3.38a.52.52,0,0,0,.25.7l2.68,1.07a.52.52,0,0,0,.66-.33l1.75-2.26a17.21,17.21,0,0,0,3.27.81v0l1.28,3.15a.52.52,0,0,0,.54.5l2.87-.31a.53.53,0,0,0,.43-.6l.49-2.9a17.34,17.34,0,0,0,3.09-.88l2.06,2.36a.52.52,0,0,0,.68.29l2.61-1.23a.52.52,0,0,0,.21-.7l-.56-3.35-.21-.24a17,17,0,0,0,2.24-2.3l.15.1,3.37.4a.52.52,0,0,0,.7-.24l1.11-2.66a.53.53,0,0,0-.32-.67l-2.25-1.79a17.45,17.45,0,0,0,.86-3.45l2.78-1a.52.52,0,0,0,.52-.52l-.16-2.88A.52.52,0,0,0,338,202.2Zm-13.73,2.69-.15.14-.79.28a4.81,4.81,0,0,1-.24,1l.64.51.09.19-.32.76-.2.07-1-.11,0,0a4.6,4.6,0,0,1-.64.65l.06.07.16,1-.07.2-.74.35-.19-.09-.59-.67a5.26,5.26,0,0,1-.87.25l-.14.82-.12.17-.82.09-.16-.14-.36-.89h0a4.49,4.49,0,0,1-.93-.23l-.5.64-.19.1-.76-.31-.07-.19.1-1,0-.05a4.92,4.92,0,0,1-.46-.41l-.09.07-1,0-.19-.08-.26-.77.1-.18.51-.35a5.15,5.15,0,0,1-.39-1.21l-.75-.12-.17-.12-.09-.81.14-.16.83-.34a4.73,4.73,0,0,1,.2-.88l-.65-.59-.08-.19.37-.74.2-.05.9.17a4.87,4.87,0,0,1,.55-.61l-.28-.89,0-.2.68-.45.21.05.7.61a4.76,4.76,0,0,1,1-.33l.13-.81.12-.17.81-.1.16.14.37.89h0a4.66,4.66,0,0,1,.89.22l.51-.54.19-.07.73.38.05.2-.15.74a4.66,4.66,0,0,1,.71.66l.93-.19.2,0,.38.73-.07.2-.59.55a5,5,0,0,1,.3,1l.76.17.16.13Z"/></g><g class="cls-27"><path class="cls-28" d="M344.05,264.74,339.48,263a30.77,30.77,0,0,0-.93-6.68l4.18-2.88a.93.93,0,0,0,.65-1.14l-1.66-4.9a.94.94,0,0,0-1.22-.51l-5.94.3a30.86,30.86,0,0,0-3.82-4.76l1.65-4.43a.93.93,0,0,0-.12-1.31l-4.17-3.05a.94.94,0,0,0-1.29.28l-3.67,2.87a30.39,30.39,0,0,0-5.36-2.2l0,0-1.45-5.9a.94.94,0,0,0-.84-1l-5.17-.18a.92.92,0,0,0-.91,1l-1.6,4.94a30.93,30.93,0,0,0-6.84,1l-3.81-4.46a.94.94,0,0,0-1.21-.54l-4.69,2.15a.94.94,0,0,0-.39,1.26l.89,5.8a30.38,30.38,0,0,0-4,3.27l-5.44-1.91A.93.93,0,0,0,281,240l-3,4.22a.94.94,0,0,0,.29,1.29l3.47,4.29a30.22,30.22,0,0,0-2.13,5.29l-5.5,1.32a.93.93,0,0,0-1,.83l-.21,5.16a.94.94,0,0,0,1,.92l4.56,1.5a30.33,30.33,0,0,0,1.29,7.9l-3.52,1.7a.94.94,0,0,0-.82,1l.88,5.08a1,1,0,0,0,1.13.7l6,.63a1,1,0,0,0,.65-.37,30.69,30.69,0,0,0,2.48,3l-.24.29-1.54,5.88a.93.93,0,0,0,.26,1.3l4.44,2.62a.93.93,0,0,0,1.26-.41l3.71-3.53a30.38,30.38,0,0,0,5.56,2.32V293l1.41,5.91a.93.93,0,0,0,.83,1l5.16.22a.93.93,0,0,0,.92-.94l1.66-5a30.55,30.55,0,0,0,5.7-.72l3,4.74a.94.94,0,0,0,1.12.7l5-1.47a1,1,0,0,0,.56-1.19l-.08-6.08a1,1,0,0,0-.31-.47,30.77,30.77,0,0,0,4.57-3.46l.24.21,5.86,1.62a.94.94,0,0,0,1.3-.23l2.69-4.41a.93.93,0,0,0-.39-1.26l-3.49-3.78a30.3,30.3,0,0,0,2.46-5.87l5.17-.94a.94.94,0,0,0,1.07-.77l.5-5.15A.94.94,0,0,0,344.05,264.74Zm-36.23,22.74a24.91,24.91,0,0,1-23.74-23.84l21.42,0a3.65,3.65,0,0,0,2.37,2.38Zm.06-28.36a3.62,3.62,0,0,0-2.37,2.37l-21.42,0a24.91,24.91,0,0,1,23.84-23.74ZM310,287.49l0-21.42a3.61,3.61,0,0,0,2.38-2.37l21.43,0A24.91,24.91,0,0,1,310,287.49Zm2.42-26a3.64,3.64,0,0,0-2.37-2.37l0-21.42a24.9,24.9,0,0,1,23.74,23.83Z"/></g><g class="cls-29"><path class="cls-30" d="M206.33,256.48a49.09,49.09,0,0,1-8.44-1.36,30.57,30.57,0,0,1-5,7.4l-2.35-2.36a28.19,28.19,0,0,1-2.24,2.09l2.4,2.42a32,32,0,0,1-18.77,7.84v-4l-.83,0c-.75,0-1.5,0-2.23-.1v4.17a27.9,27.9,0,0,1-19.41-8.34l3.17-3.16a27.27,27.27,0,0,1-2.11-2.22L147.38,262a34.09,34.09,0,0,1-7.7-18.66h4.41c0-.62-.08-1.25-.08-1.88,0-.39,0-.78,0-1.17h-4.49a27.83,27.83,0,0,1,7.93-19l2.89,2.9a28.64,28.64,0,0,1,2.09-2.23l-2.77-2.78a34,34,0,0,1,13.3-7c-.16-.72-.31-1.45-.44-2.17a41.36,41.36,0,0,1-.7-6.1c-.5.09-1,.2-1.49.32l-3.07-6.82-2.92.87,1.41,7.3a39.32,39.32,0,0,0-4.88,2.31l-4.75-5.65-2.57,1.65,3.28,6.59a39.23,39.23,0,0,0-4.26,3.65l-5.89-4.3-2.09,2.22,4.8,5.63a38.56,38.56,0,0,0-3.41,5.07l-7-2.49L127.65,223l6.28,4.08a38.39,38.39,0,0,0-1.41,4l-7.39-.68-.64,3,7,2.36c-.2,1.21-.25,2.44-.32,3.69l-7.4.89v3l7.4.89c.07,1.22.15,2.42.33,3.61l-7,2.33.63,3,7.31-.67a41.29,41.29,0,0,0,1.4,4.1l-6.2,4,1.36,2.71,6.89-2.45a39.89,39.89,0,0,0,3.42,5.15l-4.68,5.49,2.09,2.21,5.73-4.16a40.83,40.83,0,0,0,4.32,3.73l-3.18,6.38,2.57,1.64,4.58-5.44a40.79,40.79,0,0,0,5,2.4l-1.35,7,2.92.9,2.95-6.47a39.39,39.39,0,0,0,7.23,1.22l.87,7.33h3l.86-7.3a39.21,39.21,0,0,0,8-1.32l3,6.56,2.89-.92-1.37-7.19a40,40,0,0,0,4.86-2.38l4.65,5.57,2.54-1.64-3.23-6.54a41.8,41.8,0,0,0,4.21-3.67l5.82,4.27,2.07-2.21-4.75-5.63a39.65,39.65,0,0,0,3.35-5.06l7,2.5,1.35-2.71-6.28-4.11Z"/></g><g class="cls-31"><path class="cls-21" d="M297.63,188.84a2,2,0,0,0-2.16-1.72l-10-2.26a64,64,0,0,0-4-13.54l7.74-7.29a2,2,0,0,0,1-2.57l-5-9.61a2,2,0,0,0-2.68-.68l-12.19,2.51a64.75,64.75,0,0,0-9.4-8.66l2-9.7a2,2,0,0,0-.66-2.68l-9.61-5a2,2,0,0,0-2.59,1l-8.43,7.09A86.47,86.47,0,0,0,228,132.87v-.11L224.92,121c-.14-1.14-.17-2-1.2-1.85l-10.3,1.26c-1,.12-1.49,1.12-1.37,2.27l-1.61,10.75a64,64,0,0,0-13.79,4.29l-9.28-8a1.94,1.94,0,0,0-2.65-.75l-9,6a2,2,0,0,0-.42,2.74L179,149.36a64,64,0,0,0-7.25,8l-11.87-2.23a2,2,0,0,0-2.68.7l-4.83,9.68a2,2,0,0,0,1,2.59l8.52,7.77a64.64,64.64,0,0,0-2.72,11.62l-11,4.49a2,2,0,0,0-1.85,2l1.2,10.76a2,2,0,0,0,2.27,1.6l9.92,1.65A63.74,63.74,0,0,0,164.88,224l-6.74,4.64a2,2,0,0,0-1.39,2.4l3.46,10.24a2,2,0,0,0,2.55,1.09l12.73-.62a2.13,2.13,0,0,0,1.2-1,67.34,67.34,0,0,0,6.08,5.48l-.41.65L181,259.58a2,2,0,0,0,.92,2.62l10,4A2,2,0,0,0,194.5,265l6.55-8.48a64.07,64.07,0,0,0,12.28,3l0,.1,4.79,11.8a2,2,0,0,0,2,1.88l10.76-1.18a2,2,0,0,0,1.6-2.24L234.35,259a63.8,63.8,0,0,0,11.57-3.31l7.72,8.86a2,2,0,0,0,2.53,1.09L266,261a2,2,0,0,0,.78-2.65l-2.09-12.56-.8-.9a62.84,62.84,0,0,0,8.4-8.6l.57.36,12.64,1.52a2,2,0,0,0,2.63-.89l4.16-10a2,2,0,0,0-1.18-2.49l-8.44-6.71a63.65,63.65,0,0,0,3.23-12.94l10.41-3.6a2,2,0,0,0,2-1.94ZM171.94,200.41a3.28,3.28,0,1,1,3.28-3.27A3.27,3.27,0,0,1,171.94,200.41Zm83.63-41.18a3.28,3.28,0,1,1,0,4.63A3.27,3.27,0,0,1,255.56,159.23Zm-33.28-15.71A3.28,3.28,0,1,1,219,146.8,3.28,3.28,0,0,1,222.28,143.52Zm-37.92,15.71a3.28,3.28,0,1,1,0,4.63A3.28,3.28,0,0,1,184.36,159.23ZM189,235a3.28,3.28,0,1,1,0-4.63A3.28,3.28,0,0,1,189,235Zm33.28,15.7a3.28,3.28,0,1,1,3.28-3.28A3.28,3.28,0,0,1,222.28,250.75ZM260.19,235a3.27,3.27,0,1,1,0-4.63A3.27,3.27,0,0,1,260.19,235Zm-37.91,5a43.84,43.84,0,1,1,43.83-43.84A43.83,43.83,0,0,1,222.28,240.06Zm50.34-39.65a3.28,3.28,0,1,1,3.28-3.27A3.28,3.28,0,0,1,272.62,200.41Z"/></g><g class="cls-32"><path class="cls-33" d="M133.63,279.85s-.18-1.83-.25-2.73l0,0h0a.78.78,0,0,0-.81-.8h-.1l-1.85.18h-.07c-.62,0-.78-.84-.78-.85a24.37,24.37,0,0,0-.7-2.46,2.11,2.11,0,0,1-.15-.74c0-.6.38-.72.38-.72l1.72-.88a.72.72,0,0,0,.44-.67,1.16,1.16,0,0,0-.14-.52l-1.3-2.55s-.29-.62-.55-.56a3,3,0,0,0-.59.24l-1.66.83-.24,0a1.25,1.25,0,0,1-.88-.43h0c-.09-.2-1.22-1.62-1.84-2.37a1.16,1.16,0,0,1-.33-.71.41.41,0,0,1,.16-.35l1.25-1.48a.91.91,0,0,0,.25-.6.92.92,0,0,0-.28-.61l-2.54-2A.57.57,0,0,0,122,259l-.32.39-1.18,1.42a.47.47,0,0,1-.4.15,1.64,1.64,0,0,1-.7-.21c-.46-.41-2.1-1.14-2.81-1.61-.35-.22-.44-.45-.44-.61a.49.49,0,0,1,.1-.3l0-.14.5-1.56a1.08,1.08,0,0,0,.07-.35.87.87,0,0,0-.64-.79l-.09,0-2.64-.86h0l-.34-.12c-.48-.17-.74.95-.74.95s-.51,1.42-.64,1.83h0c-.1.26-1.07.06-1.07.06-.39-.1-1.79-.19-2.79-.27s-1-.65-1-.65-.05-.72-.15-1.77c-.06-.79-.59-.85-.85-.85h0l-.13,0-2.65.2a.9.9,0,0,0-.8,1h0c0,.2,0,1.38.07,1.88h0c0,.45-.44.72-.81.81l-.12,0a24.8,24.8,0,0,0-2.75.79h0a.85.85,0,0,1-.32.08.84.84,0,0,1-.82-.56h0s-.19-.48-.66-1.39l-.25-.46c-.16-.4-.42-.13-.72,0l-.37.22s-1.94.85-2.66,1.22c-.34.17-.43.31-.43.54a.51.51,0,0,0,.12.38l.85,1.5.2.65c0,.32-.36.47-.64.66s-1.37,1.06-2.24,1.8l0,0h0a1.16,1.16,0,0,1-.73.29h0a.84.84,0,0,1-.62-.28l-1.25-1.06a.85.85,0,0,0-.55-.21,1,1,0,0,0-.58.22l-1.8,2.1-.12.14,0,0a.91.91,0,0,0-.23.58,1,1,0,0,0,.32.67l1.47,1.25a.57.57,0,0,1,.19.46,1.66,1.66,0,0,1-.2.7,22.49,22.49,0,0,0-1.43,2.57c-.25.49-.57.61-.81.61a.77.77,0,0,1-.39-.11l-1.55-.5-.34-.05a.89.89,0,0,0-.79.51s-.57,1.74-.87,2.69a.91.91,0,0,0,.45,1.23l1.93.63c.51.16.41,1.06.41,1.06a24.82,24.82,0,0,0-.34,2.53c-.08,1-.84,1-.93,1h0a15.46,15.46,0,0,1-1.57.17c-1.11.1-.88,1.27-.88,1.27s.11,1.49.2,2.63c.07.86.6,1,.86,1h.12l1.61-.12h.12a.9.9,0,0,1,1,.79c.12.67.66,2.19.83,3s-.28.94-.28.94l-1.63.83a.9.9,0,0,0-.43,1.34l1.26,2.48a.75.75,0,0,0,.7.45,1.43,1.43,0,0,0,.67-.2l1.53-.79.27-.06a1.18,1.18,0,0,1,.89.65c.24.4,1.27,1.65,1.79,2.29s.05,1.05.05,1.05l-1.14,1.34a.94.94,0,0,0,0,1.29s1.41,1.28,2.19,1.86a1,1,0,0,0,.61.23,1,1,0,0,0,.72-.37l1.23-1.44a.59.59,0,0,1,.45-.17,1.26,1.26,0,0,1,.67.21c.39.27,1.7,1,2.54,1.42s.59,1.06.59,1.06l-.49,1.53c-.37,1.13.45,1.33.45,1.33l2.63.85a1.36,1.36,0,0,0,.45.08.85.85,0,0,0,.82-.6l.59-1.85c.11-.33.45-.42.78-.42a3.85,3.85,0,0,1,.7.08c.35.06,1.4.19,2.47.27s1,.85,1,.85.07.93.14,1.78c.06.7.74.76,1,.76h.09l2.55-.2c1.13-.09,1-1,1-1s-.09-1-.14-1.73.72-.94,1-1,1.41-.37,2.53-.73a1.78,1.78,0,0,1,.54-.1.7.7,0,0,1,.75.51l.83,1.61a.72.72,0,0,0,.69.41,1.26,1.26,0,0,0,.42-.07l2.63-1.34a.86.86,0,0,0,.29-1.28l-.78-1.52c-.24-.48.1-.94.55-1.26s1.65-1.27,2.33-1.82c0,0,.55-.51.7-.51l.32.38s.62.69,1.3,1.48a.9.9,0,0,0,1.36,0l2-2.27a1.16,1.16,0,0,0,.18-.7,1.07,1.07,0,0,0-.44-.73s-1-.88-1.45-1.26a.55.55,0,0,1-.18-.44,1.71,1.71,0,0,1,.25-.75c.22-.29.94-1.83,1.42-2.69h0l.07.16c.21-.35.49-.26.69-.26h0a3.21,3.21,0,0,0,.44,0,10.39,10.39,0,0,1,1.48.39v.11c.15.05.27.21.39.21h0c.67,0,.81-.85.81-.85s.55-1.79.86-2.71a1.16,1.16,0,0,0,.05-.4.89.89,0,0,0-.63-.81l-1.7-.56a.84.84,0,0,1-.54-.86l0-.28c.12-.53.25-2.25.37-3.08h0v-.35c.1-.29.36-.29.53-.35h0s1-.1,2-.16a.8.8,0,0,0,.82-.87A.57.57,0,0,0,133.63,279.85ZM105.89,263a17.6,17.6,0,0,1,12.27,5l-2.82,2.81c-.29-.26-.59-.52-.91-.75l.41-2a.4.4,0,0,0-.14-.55l-2-1a.41.41,0,0,0-.53.2l-1.6,1.46a19.14,19.14,0,0,0-2.64-.59h0l-.77-2.42c0-.23-.1-.4-.31-.38l-2.14.26a.39.39,0,0,0-.3.47l-.34,2.2a13.2,13.2,0,0,0-2.83.88l-1.91-1.65a.39.39,0,0,0-.54-.15L97,268a.4.4,0,0,0-.08.56l.52,1.64-2.95-2.95A17.59,17.59,0,0,1,105.89,263Zm7.21,12.61.29.08.54,1-.11.28-.84.79a6.69,6.69,0,0,1,.44,1.46l1.09.24.24.18.06,1.18-.21.2-1.12.39a7.45,7.45,0,0,1-.35,1.4l.91.73.14.27L113.7,285l-.28.1-1.31-.16-2.85-2.87a2.93,2.93,0,0,0,0-2.72l3.69-3.67Zm-1.71,11.64-.09.29-1.06.5-.27-.12-.84-1a6.67,6.67,0,0,1-1.25.36l-.2,1.18-.17.25-1.16.13-.41-.2-.7-1.28v0c0-.07-.71-.17-1.15-.32l-.61.92-.23.14-1.06-.44-.08-.28.11-1,3.1-3.08a3,3,0,0,0,2.72,0l3.27,3.28Zm-11.28-1.74-.27-.11-.38-1.12.15-.25.73-.52a6.92,6.92,0,0,1-.55-1.73l-1.08-.18-.25-.17-.13-1.17.21-.22,1.19-.49a6.44,6.44,0,0,1,.3-1.25l-.92-.84-.12-.29.53-1,.29-.08,1.24.24,3,3a2.92,2.92,0,0,0,0,2.71l-3.48,3.47Zm1.36-11.36,0-.3,1-.64.29.07,1,.88a6.61,6.61,0,0,1,1.5-.47l.19-1.16.17-.25,1.16-.13.43.2.73,1.27h0A9.27,9.27,0,0,0,109,274l.62-.77.24-.11,1,.55.06.28-.22,1.06.21.17L108,278.1a3,3,0,0,0-2.72,0l-3.81-3.82Zm-13.23,6.51a17.62,17.62,0,0,1,4.94-12.25L96.69,272c-.17.21-.35.41-.52.63l-2.43-.46a.41.41,0,0,0-.54.15l-1,2a.4.4,0,0,0,.21.53l1.74,1.59a12.34,12.34,0,0,0-.56,2.38l-2.25.92a.4.4,0,0,0-.38.42l.24,2.2a.42.42,0,0,0,.47.33l2,.34a13.54,13.54,0,0,0,1.05,3.27l-1.38.95a.41.41,0,0,0-.28.49l.71,2.1a.4.4,0,0,0,.52.22l1.84-.09-3,3A17.58,17.58,0,0,1,88.24,280.69Zm17.65,17.66a17.59,17.59,0,0,1-11.45-4.22l3.65-3.64.35.3-.09.13-.27,2.59a.39.39,0,0,0,.19.53l2.05.82a.4.4,0,0,0,.51-.25l1.27-1.74a16.25,16.25,0,0,0,2.43.62v0l1.06,2.42a.44.44,0,0,0,.46.38l2.22-.24a.41.41,0,0,0,.34-.46l.38-2.22a13.32,13.32,0,0,0,2.37-.68l1.59,1.81a.39.39,0,0,0,.51.22l2-.94a.4.4,0,0,0,.16-.54l-.42-2.57-.16-.19.06-.06,3,3A17.61,17.61,0,0,1,105.89,298.35Zm13.42-6.19-3-3c.14-.15.28-.29.4-.46l.12.07,2.59.31a.4.4,0,0,0,.54-.18l.85-2a.42.42,0,0,0-.25-.51L118.88,285a13.25,13.25,0,0,0,.67-2.65l2.13-.73a.41.41,0,0,0,.4-.4L122,279a.41.41,0,0,0-.44-.35l-2.06-.46a13.55,13.55,0,0,0-.83-2.77l1.59-1.49a.41.41,0,0,0,.2-.53l-1-2a.39.39,0,0,0-.54-.13l-1.91.39,2.42-2.4a17.63,17.63,0,0,1-.05,22.87Z"/></g><path class="cls-18" d="M137.22,280.91l12.1,9.34,5.13,14.42a4.67,4.67,0,1,0,8.81-3.09l-5.38-15.16,0-.06a4.47,4.47,0,0,0-1.6-2.21l-13.62-10.52a4.53,4.53,0,1,0-5.41,7.27Z"/><circle class="cls-18" cx="180.46" cy="293.43" r="9.74" transform="translate(-160.85 340.08) rotate(-66.19)"/><path class="cls-18" d="M172.61,302.63l-8.76-3.86.85,2.39a1.72,1.72,0,0,1,.09.42c.76,3.68-1.65,7.86-5.77,7.88-3.28,0-5.47-1.94-6.53-4.92l-.44-1.25-9.79,22.18c0,.07-.07.14-.1.22l-.09.19a2.53,2.53,0,0,0-.21.91l0,.1-2.17,18.93a4.65,4.65,0,0,0-.46.63l-9.37,15.62a4.67,4.67,0,0,0,8,4.81l9.38-15.62a4.71,4.71,0,0,0,.29-.58,4.45,4.45,0,0,0,1-2.35l1.84-16,1.46.65,9.57,14.15v17.38a4.67,4.67,0,1,0,9.34,0V346.24s0,0,0-.07a4.53,4.53,0,0,0-.77-2.61l-7.64-11.3L173.9,306A2.53,2.53,0,0,0,172.61,302.63Z"/><path class="cls-19" d="M224.85,295.5a9.68,9.68,0,1,0-9.69-9.67A9.67,9.67,0,0,0,224.85,295.5Z"/><path class="cls-19" d="M252.58,289.92a.28.28,0,0,0,0-.06,4,4,0,0,0-.21-1l-4.62-16.17a4,4,0,0,0-7.74,2.22l3.89,13.61-12.29,8.41H218.07l-12.29-8.41,3.9-13.61a4,4,0,0,0-7.74-2.22l-4.62,16.17a4,4,0,0,0-.21,1v.06c0,.09,0,.19,0,.28s0,.21,0,.31v0a4,4,0,0,0,2.22,3.24l15.31,10.48.26.16V333a1.93,1.93,0,0,0,.06.49v30.71c0,3.33,1.73,5,5,5,2.93,0,4.26-1.79,4.26-5v-29.1h1.32v29.1c0,3.33,1.72,5,5,5,2.93,0,4.25-1.79,4.25-5V333.53a2.09,2.09,0,0,0,.06-.49V304.41l.26-.16,15.32-10.48a4,4,0,0,0,2.22-3.24v0c0-.1,0-.21,0-.31S252.58,290,252.58,289.92Z"/></g></g></svg>